<svg width="1200" height="800" viewBox="0 0 1200 800" fill="none" xmlns="http://www.w3.org/2000/svg">
  <rect width="1200" height="800" fill="#08151F"/>
  <rect x="48" y="48" width="1104" height="704" rx="28" fill="url(#paint0_linear)" stroke="#203449"/>
  <circle cx="312" cy="270" r="118" fill="#132A3C"/>
  <rect x="478" y="210" width="390" height="32" rx="16" fill="#EAF8FF" fill-opacity="0.82"/>
  <rect x="478" y="268" width="320" height="22" rx="11" fill="#D3F0FF" fill-opacity="0.56"/>
  <rect x="478" y="315" width="440" height="22" rx="11" fill="#D3F0FF" fill-opacity="0.4"/>
  <rect x="478" y="364" width="340" height="22" rx="11" fill="#D3F0FF" fill-opacity="0.4"/>
  <rect x="105" y="470" width="1020" height="180" rx="24" fill="#0F2336" fill-opacity="0.9"/>
  <rect x="160" y="520" width="160" height="78" rx="18" fill="#4ED4FF" fill-opacity="0.28"/>
  <rect x="360" y="520" width="180" height="78" rx="18" fill="#79E1FF" fill-opacity="0.2"/>
  <rect x="580" y="520" width="200" height="78" rx="18" fill="#5CB9FF" fill-opacity="0.2"/>
  <rect x="820" y="520" width="190" height="78" rx="18" fill="#7FE0FF" fill-opacity="0.2"/>
  <text x="600" y="760" text-anchor="middle" fill="#D8F2FF" font-family="Arial, Helvetica, sans-serif" font-size="34" font-weight="700">AI BUILDING FUTURE</text>
  <defs>
    <linearGradient id="paint0_linear" x1="160" y1="90" x2="980" y2="720" gradientUnits="userSpaceOnUse">
      <stop stop-color="#0B1A2A"/>
      <stop offset="1" stop-color="#0A141C"/>
    </linearGradient>
  </defs>
</svg>
